<svg xmlns="http://www.w3.org/2000/svg" width="15.339" height="15.376" viewBox="0 0 15.339 15.376">
  <g id="Grupo_760" data-name="Grupo 760" transform="translate(-7352.638 -11793.808)">
    <path id="Caminho_660" data-name="Caminho 660" d="M7352.638,11809.184l1.1-4.112a7.615,7.615,0,1,1,3.032,3Zm4.34-2.648.26.155a6.18,6.18,0,1,0-2.114-2.1l.16.264-.615,2.3Z" fill="#333"/>
    <path id="Caminho_661" data-name="Caminho 661" d="M7363.208,11802.458a1.284,1.284,0,0,0-1.088-.245c-.283.116-.463.559-.646.784a.271.271,0,0,1-.35.076,4.927,4.927,0,0,1-2.459-2.106.3.3,0,0,1,.038-.412,1.658,1.658,0,0,0,.447-.725,1.585,1.585,0,0,0-.2-.858,2.041,2.041,0,0,0-.633-.955.869.869,0,0,0-.943.141,1.912,1.912,0,0,0-.663,1.517,2.1,2.1,0,0,0,.059.481,4.018,4.018,0,0,0,.462,1.063,8.34,8.34,0,0,0,.482.732,7.424,7.424,0,0,0,2.09,1.94,6.312,6.312,0,0,0,1.3.62,2.888,2.888,0,0,0,1.517.239,1.832,1.832,0,0,0,1.376-1.023.885.885,0,0,0,.064-.521C7363.985,11802.846,7363.5,11802.632,7363.208,11802.458Z" fill="#333" fill-rule="evenodd"/>
  </g>
</svg>
