<svg xmlns="http://www.w3.org/2000/svg" width="29.573" height="29.573" viewBox="0 0 29.573 29.573">
  <g id="Grupo_364" data-name="Grupo 364" transform="translate(-1162.813 -87.862)">
    <circle id="Elipse_29" data-name="Elipse 29" cx="14.786" cy="14.786" r="14.786" transform="translate(1162.813 87.862)" fill="#30d24e"/>
    <g id="Grupo_363" data-name="Grupo 363">
      <path id="Caminho_826" data-name="Caminho 826" d="M1169.717,110.549l1.133-4.227a7.824,7.824,0,1,1,3.116,3.089Zm4.46-2.722.268.16a6.351,6.351,0,1,0-2.173-2.153l.164.269-.632,2.36Z" fill="#fff"/>
      <path id="Caminho_827" data-name="Caminho 827" d="M1180.579,103.638a1.309,1.309,0,0,0-1.118-.252c-.29.119-.475.573-.664.805a.278.278,0,0,1-.36.078,5.065,5.065,0,0,1-2.526-2.164.31.31,0,0,1,.039-.423,1.708,1.708,0,0,0,.459-.745,1.634,1.634,0,0,0-.205-.882,2.089,2.089,0,0,0-.651-.981.892.892,0,0,0-.969.144,1.967,1.967,0,0,0-.682,1.558,2.221,2.221,0,0,0,.062.494,4.054,4.054,0,0,0,.474,1.094,8.718,8.718,0,0,0,.495.753,7.648,7.648,0,0,0,2.148,1.994,6.52,6.52,0,0,0,1.339.637,2.979,2.979,0,0,0,1.56.246,1.888,1.888,0,0,0,1.414-1.052.916.916,0,0,0,.065-.536C1181.378,104.036,1180.878,103.816,1180.579,103.638Z" fill="#fff" fill-rule="evenodd"/>
    </g>
  </g>
</svg>
